<?xml version="1.0" encoding="utf-8"?>
<!-- Generator: Adobe Illustrator 16.0.0, SVG Export Plug-In . SVG Version: 6.00 Build 0)  -->
<!DOCTYPE svg PUBLIC "-//W3C//DTD SVG 1.1//EN" "http://www.w3.org/Graphics/SVG/1.1/DTD/svg11.dtd">
<svg version="1.1" id="Layer_1" xmlns="http://www.w3.org/2000/svg" xmlns:xlink="http://www.w3.org/1999/xlink" x="0px" y="0px"
	 width="93.645px" height="95.201px" viewBox="0 0 93.645 95.201" enable-background="new 0 0 93.645 95.201" xml:space="preserve">
<rect x="260.5" y="402" display="none" width="339.5" height="100.5"/>
<g id="BRAND">
	<g>
		<path fill="#C02127" d="M86.588,70.535L55.5,39.447l8.438-0.008c19.758-0.02,22.707-10.233,22.707-16.319
			C86.645,15.306,80.695,7,69.666,7c-26.129,0-46.319,0.008-46.32,0.008l-7.003-7c0,0,27.192-0.008,53.323-0.008
			c13.67,0,23.979,9.939,23.979,23.12c0,4.889-1.715,19.678-21.818,22.755l14.791,14.789L86.588,70.535z"/>
	</g>
	<g>
		<polygon fill="#C02127" points="93.479,95.201 23.354,25.075 33.256,25.077 93.481,85.302 		"/>
	</g>
	<g>
		<polygon fill="#C02127" points="55.533,74.487 0,18.955 9.904,18.958 55.529,64.584 		"/>
	</g>
</g>
</svg>
